<svg width="1024" height="1024" viewBox="0 0 1024 1024" fill="none" xmlns="http://www.w3.org/2000/svg">
<path d="M0 0H1024V1024H0V0Z" fill="black"/>
<path d="M312.233 134.138C313.315 134.135 314.397 134.133 315.512 134.13C319.121 134.123 322.73 134.124 326.339 134.125C328.934 134.121 331.529 134.118 334.124 134.113C341.166 134.104 348.209 134.101 355.251 134.1C359.66 134.099 364.069 134.097 368.478 134.094C383.093 134.084 397.708 134.079 412.323 134.08C413.11 134.08 413.897 134.08 414.707 134.08C415.495 134.08 416.283 134.08 417.095 134.08C429.826 134.081 442.556 134.07 455.287 134.054C468.398 134.038 481.51 134.031 494.622 134.032C501.967 134.032 509.312 134.029 516.656 134.017C523.58 134.006 530.504 134.006 537.428 134.014C539.95 134.015 542.472 134.013 544.994 134.006C565.21 133.955 585.933 134.114 605.648 139.09C607.164 139.455 607.164 139.455 608.711 139.828C640.582 147.673 671.017 160.636 697.671 179.95C698.296 180.402 698.921 180.854 699.565 181.319C708.058 187.522 716.02 194.236 723.613 201.517C724.96 202.807 726.314 204.091 727.673 205.369C746.207 222.864 760.749 242.527 773.406 264.594C773.802 265.268 774.199 265.942 774.608 266.637C811.61 329.756 816.893 408.882 799.324 478.739C790.384 511.702 774.737 544.191 753.358 570.873C752.618 571.827 751.877 572.78 751.114 573.762C736.874 591.926 720.724 608.428 702.126 622.106C701.173 622.818 701.173 622.818 700.2 623.544C657.045 655.71 605.518 673.599 551.638 673.464C549.858 673.464 548.079 673.464 546.299 673.465C541.505 673.465 536.71 673.458 531.915 673.451C526.891 673.444 521.867 673.443 516.843 673.442C507.345 673.438 497.848 673.429 488.35 673.418C477.53 673.405 466.711 673.399 455.891 673.394C433.649 673.382 411.407 673.363 389.165 673.338C389.168 674.057 389.171 674.776 389.174 675.517C389.248 693.09 389.303 710.662 389.338 728.234C389.355 736.732 389.378 745.231 389.417 753.729C389.45 761.143 389.472 768.557 389.479 775.972C389.483 779.891 389.493 783.81 389.518 787.729C389.711 819.833 386.124 843.788 363.34 867.895C352.749 878.107 337.416 888.104 322.103 888.346C321.079 888.328 320.054 888.309 318.999 888.29C318.923 853.444 318.864 818.598 318.828 783.752C318.824 779.629 318.82 775.506 318.815 771.382C318.815 770.562 318.814 769.741 318.813 768.895C318.798 755.642 318.772 742.39 318.741 729.137C318.71 715.517 318.691 701.897 318.685 688.277C318.68 679.887 318.666 671.498 318.638 663.108C318.619 656.651 318.617 650.195 318.621 643.738C318.62 641.107 318.614 638.475 318.601 635.843C318.424 597.909 327.96 566.276 354.591 538.405C375.609 517.387 404.482 505.125 434.123 505.003C435.278 505.003 436.432 505.004 437.622 505.005C439.487 504.999 439.487 504.999 441.391 504.993C444.078 504.985 446.765 504.979 449.452 504.975C453.72 504.967 457.988 504.949 462.255 504.929C474.385 504.871 486.515 504.816 498.645 504.8C506.08 504.789 513.515 504.756 520.951 504.709C523.768 504.695 526.585 504.69 529.402 504.692C548.215 504.705 566.033 504.455 582.817 494.861C583.598 494.433 584.38 494.005 585.186 493.564C590.925 490.337 596.065 486.612 601.015 482.257C603.003 480.66 603.003 480.66 605.231 480.66C605.515 480.014 605.799 479.368 606.092 478.703C607.594 475.956 609.311 474.126 611.495 471.89C628.375 453.202 636.489 426.756 635.471 401.948C634.686 389.958 631.587 379.013 626.392 368.172C625.968 367.226 625.545 366.28 625.108 365.305C621.604 357.788 617.019 351.298 611.913 344.784C611.251 343.922 610.589 343.061 609.908 342.173C595.969 325.22 574.329 314.605 552.885 311.372C541.258 310.41 529.563 310.558 517.904 310.582C513.403 310.586 508.903 310.557 504.402 310.533C495.914 310.492 487.427 310.478 478.939 310.474C469.261 310.469 459.583 310.432 449.905 310.393C430.03 310.314 410.154 310.273 390.279 310.258C390.29 311.257 390.302 312.256 390.314 313.286C390.352 317.03 390.38 320.775 390.401 324.519C390.412 326.133 390.427 327.747 390.447 329.361C390.643 346.171 388.216 360.236 376.218 373.045C367.134 381.592 357.05 386.153 344.667 386.101C343.932 386.099 343.197 386.098 342.439 386.096C340.102 386.09 337.764 386.076 335.427 386.062C333.837 386.056 332.248 386.051 330.659 386.047C326.772 386.034 322.886 386.015 318.999 385.992C318.896 370.956 318.817 355.921 318.768 340.885C318.745 333.902 318.714 326.919 318.663 319.937C318.614 313.192 318.588 306.448 318.576 299.703C318.568 297.136 318.552 294.569 318.528 292.002C318.495 288.393 318.491 284.785 318.493 281.175C318.477 280.126 318.461 279.076 318.445 277.995C318.511 267.192 321.541 257.727 329.123 249.872C341.873 237.983 354.378 237.368 371.158 237.432C373.157 237.428 375.156 237.422 377.155 237.414C382.561 237.399 387.967 237.405 393.373 237.416C399.055 237.424 404.737 237.416 410.419 237.411C419.968 237.405 429.518 237.413 439.067 237.429C450.061 237.447 461.055 237.441 472.049 237.423C481.524 237.408 490.999 237.406 500.474 237.414C506.117 237.419 511.76 237.42 517.402 237.409C522.719 237.399 528.036 237.406 533.353 237.426C535.288 237.43 537.223 237.429 539.157 237.421C556.971 237.359 573.98 239.4 590.891 245.313C592.02 245.7 593.149 246.087 594.312 246.485C634.629 260.688 670.535 291.734 689.138 330.449C690.146 332.62 691.129 334.801 692.103 336.988C692.707 338.323 693.311 339.658 693.934 341.034C711.039 381.132 711.741 429.256 695.582 469.738C677.838 512.944 646.677 545.98 604.117 565.305C602.848 565.909 601.579 566.514 600.271 567.136C579.047 576.535 556.105 578.375 533.174 578.215C529.008 578.186 524.843 578.192 520.677 578.206C512.599 578.227 504.521 578.212 496.442 578.188C485.411 578.158 474.38 578.152 463.349 578.183C459.273 578.187 455.199 578.163 451.123 578.138C433.36 578.115 416.135 578.478 402.743 591.813C399.844 595.06 397.759 598.149 395.847 602.058C416.916 601.99 437.984 601.904 459.053 601.796C468.838 601.746 478.623 601.702 488.408 601.672C496.949 601.647 505.489 601.609 514.03 601.558C518.541 601.532 523.052 601.511 527.564 601.504C552.2 601.46 576.603 601.224 600.219 593.357C601.444 592.962 602.668 592.567 603.93 592.16C652.521 576.222 691.079 542.225 714.216 496.655C721.185 482.286 726.405 467.256 729.97 451.703C730.188 450.793 730.407 449.883 730.632 448.946C737.947 417.35 736.837 382.763 728.856 351.466C728.408 349.535 727.962 347.604 727.52 345.671C721.292 319.329 708.86 295.773 692.103 274.618C691.36 273.673 691.36 273.673 690.602 272.709C679.207 258.345 666.318 246.679 650.894 236.751C649.751 235.997 648.609 235.243 647.431 234.467C628.524 222.356 607.925 214.181 585.949 209.673C585.086 209.495 584.222 209.318 583.333 209.135C567.894 206.199 552.23 206.508 536.584 206.5C534.171 206.495 531.759 206.49 529.346 206.484C522.832 206.469 516.318 206.462 509.804 206.457C505.73 206.454 501.657 206.449 497.583 206.444C484.824 206.429 472.065 206.418 459.306 206.414C444.598 206.409 429.891 206.389 415.183 206.357C403.793 206.333 392.403 206.322 381.012 206.32C374.217 206.319 367.422 206.312 360.627 206.292C354.243 206.274 347.86 206.272 341.476 206.281C339.136 206.282 336.796 206.278 334.456 206.266C331.258 206.252 328.061 206.259 324.862 206.27C323.941 206.262 323.019 206.253 322.069 206.243C313.205 206.318 306.026 208.974 298.952 214.476C292.625 220.953 287.683 229.91 287.669 239.137C287.663 240.557 287.663 240.557 287.656 242.005C287.657 243.047 287.659 244.089 287.66 245.162C287.657 246.271 287.653 247.381 287.65 248.524C287.641 252.278 287.64 256.033 287.638 259.787C287.633 262.491 287.627 265.195 287.621 267.899C287.609 273.797 287.601 279.695 287.595 285.593C287.587 294.363 287.572 303.134 287.557 311.904C287.53 326.655 287.509 341.406 287.49 356.158C287.472 370.768 287.451 385.379 287.428 399.989C287.426 400.897 287.425 401.805 287.423 402.74C287.416 407.349 287.408 411.959 287.401 416.568C287.348 449.235 287.299 481.903 287.254 514.57C287.211 546.311 287.164 578.052 287.115 609.792C287.114 610.77 287.112 611.748 287.111 612.756C287.095 622.577 287.08 632.398 287.065 642.219C287.033 662.227 287.003 682.235 286.972 702.242C286.97 703.162 286.969 704.082 286.968 705.03C286.873 766.488 286.786 827.946 286.701 889.404C283.509 889.438 280.317 889.462 277.125 889.482C276.229 889.492 275.333 889.503 274.409 889.514C257.839 889.59 244.507 883.479 232.523 872.123C214.827 853.458 213.97 833.77 214.024 809.362C214.022 806.865 214.018 804.368 214.014 801.871C214.005 795.025 214.009 788.179 214.016 781.333C214.021 774.703 214.015 768.073 214.009 761.443C213.997 747.049 213.998 732.654 214.005 718.259C214.01 705.658 214.012 693.058 214.009 680.457C214.009 679.621 214.009 678.784 214.009 677.922C214.008 674.526 214.007 671.13 214.007 667.734C214 635.885 214.006 604.036 214.018 572.186C214.028 543.914 214.028 515.642 214.017 487.37C214.005 455.587 214 423.803 214.007 392.02C214.008 388.628 214.009 385.237 214.009 381.845C214.009 381.01 214.01 380.175 214.01 379.315C214.012 366.729 214.009 354.143 214.004 341.556C213.997 327.235 213.999 312.913 214.011 298.591C214.017 291.288 214.019 283.984 214.012 276.68C214.005 269.987 214.009 263.293 214.021 256.599C214.023 254.185 214.022 251.771 214.016 249.357C213.946 215.229 219.817 186.676 244.1 160.808C262.662 143.128 286.797 134.094 312.233 134.138Z" fill="#F5F5F5"/>
<path d="M371.158 237.432C373.157 237.428 375.156 237.422 377.155 237.414C382.561 237.399 387.967 237.405 393.373 237.416C399.055 237.424 404.737 237.416 410.419 237.411C419.968 237.405 429.518 237.413 439.067 237.429C450.061 237.447 461.055 237.441 472.049 237.423C481.524 237.408 490.999 237.406 500.474 237.414C506.117 237.419 511.76 237.42 517.402 237.409C522.719 237.399 528.036 237.406 533.353 237.426C535.288 237.43 537.223 237.429 539.157 237.421C556.971 237.359 573.98 239.4 590.891 245.313C592.02 245.7 593.149 246.087 594.312 246.485C634.629 260.688 670.535 291.734 689.138 330.449C690.146 332.62 691.129 334.801 692.103 336.988C692.707 338.323 693.311 339.658 693.934 341.034C711.039 381.132 711.741 429.256 695.582 469.738C677.838 512.944 646.677 545.98 604.117 565.305C602.848 565.909 601.579 566.514 600.271 567.136C579.047 576.535 556.105 578.375 533.174 578.215C529.008 578.186 524.843 578.192 520.677 578.206C512.599 578.227 504.521 578.212 496.442 578.188C485.411 578.158 474.38 578.152 463.349 578.183C459.273 578.187 455.199 578.163 451.123 578.138C433.282 578.115 416.516 578.587 402.859 591.617C394.04 601.238 390.006 612.072 389.99 625.064C389.986 625.874 389.982 626.684 389.977 627.519C389.966 630.207 389.971 632.895 389.975 635.584C389.971 637.522 389.965 639.46 389.958 641.399C389.945 645.562 389.939 649.726 389.938 653.889C389.936 660.486 389.916 667.083 389.893 673.68C389.838 690.071 389.803 706.462 389.78 722.853C389.761 735.587 389.736 748.32 389.687 761.053C389.663 767.596 389.654 774.139 389.656 780.682C389.655 784.774 389.639 788.866 389.619 792.958C389.613 794.838 389.613 796.719 389.618 798.6C389.692 826.055 382.476 847.648 363.34 867.895C352.749 878.107 337.416 888.104 322.103 888.346C321.079 888.328 320.054 888.309 318.999 888.29C318.923 853.444 318.864 818.598 318.828 783.752C318.824 779.629 318.82 775.506 318.815 771.382C318.815 770.562 318.814 769.741 318.813 768.895C318.798 755.642 318.772 742.39 318.741 729.137C318.71 715.517 318.691 701.897 318.685 688.277C318.68 679.887 318.666 671.498 318.638 663.108C318.619 656.651 318.617 650.195 318.621 643.738C318.62 641.107 318.614 638.475 318.601 635.843C318.424 597.909 327.96 566.276 354.591 538.405C375.609 517.387 404.482 505.125 434.123 505.003C435.278 505.003 436.432 505.004 437.622 505.005C438.865 505.001 440.109 504.997 441.391 504.993C444.078 504.985 446.765 504.979 449.452 504.975C453.72 504.967 457.988 504.949 462.255 504.929C474.385 504.871 486.515 504.816 498.645 504.8C506.08 504.789 513.515 504.756 520.951 504.709C523.768 504.695 526.585 504.69 529.402 504.692C548.215 504.705 566.033 504.455 582.817 494.861C583.598 494.433 584.38 494.005 585.186 493.564C590.925 490.337 596.065 486.612 601.015 482.257C603.003 480.66 603.003 480.66 605.231 480.66C605.515 480.014 605.799 479.368 606.092 478.703C607.594 475.956 609.311 474.126 611.495 471.89C628.375 453.202 636.489 426.756 635.471 401.948C634.686 389.958 631.587 379.013 626.392 368.172C625.968 367.226 625.545 366.28 625.108 365.305C621.604 357.788 617.019 351.298 611.913 344.784C611.251 343.922 610.589 343.061 609.908 342.173C595.969 325.22 574.329 314.605 552.885 311.372C541.258 310.41 529.563 310.558 517.904 310.582C513.403 310.586 508.903 310.557 504.402 310.533C495.914 310.492 487.427 310.478 478.939 310.474C469.261 310.469 459.583 310.432 449.905 310.393C430.03 310.314 410.154 310.273 390.279 310.258C390.29 311.257 390.302 312.256 390.314 313.286C390.352 317.03 390.38 320.775 390.401 324.519C390.412 326.133 390.427 327.747 390.447 329.361C390.643 346.171 388.216 360.236 376.218 373.045C367.134 381.592 357.05 386.153 344.667 386.101C343.932 386.099 343.197 386.098 342.439 386.096C340.102 386.09 337.764 386.076 335.427 386.062C333.837 386.056 332.248 386.051 330.659 386.047C326.772 386.034 322.886 386.015 318.999 385.992C318.896 370.956 318.817 355.921 318.768 340.885C318.745 333.902 318.714 326.919 318.663 319.937C318.614 313.192 318.588 306.448 318.576 299.703C318.568 297.136 318.552 294.569 318.528 292.002C318.495 288.393 318.491 284.785 318.493 281.175C318.477 280.126 318.461 279.076 318.445 277.995C318.511 267.192 321.541 257.727 329.123 249.872C341.873 237.983 354.378 237.368 371.158 237.432Z" fill="#F59E25"/>
</svg>
