<svg width="600" height="115" viewBox="0 0 600 115" fill="none" xmlns="http://www.w3.org/2000/svg">
<path d="M12.3824 0.0173482C12.5187 0.0170302 12.6551 0.0167121 12.7956 0.0163844C13.2505 0.015499 13.7054 0.0156105 14.1604 0.0157266C14.4875 0.0153064 14.8146 0.0148286 15.1417 0.0142978C16.0294 0.0130586 16.917 0.0127286 17.8047 0.012639C18.3605 0.0125391 18.9163 0.0122391 19.472 0.0118673C21.3142 0.0106353 23.1565 0.00998327 24.9987 0.0100887C25.0979 0.0100943 25.1971 0.0100999 25.2993 0.0101057C25.3986 0.0101114 25.4979 0.0101171 25.6002 0.010123C27.2049 0.0101799 28.8096 0.00884069 30.4143 0.00685731C32.067 0.00483089 33.7198 0.00387181 35.3725 0.00399253C36.2984 0.00403883 37.2242 0.00363881 38.15 0.0021425C39.0227 0.000770526 39.8955 0.000781002 40.7682 0.00179386C41.0861 0.00193915 41.404 0.00161827 41.7219 0.000760546C44.2701 -0.00566144 46.8823 0.0143859 49.3674 0.641542C49.5585 0.687604 49.5585 0.687604 49.7534 0.734596C53.7709 1.72353 57.6071 3.35746 60.967 5.79201C61.0458 5.84897 61.1245 5.90593 61.2057 5.96462C62.2762 6.74646 63.2798 7.59278 64.2369 8.51052C64.4068 8.6732 64.5774 8.83497 64.7487 8.99611C67.0848 11.2014 68.918 13.6799 70.5133 16.4615C70.5633 16.5464 70.6133 16.6314 70.6648 16.7189C75.329 24.6752 75.9949 34.6491 73.7804 43.4545C72.6535 47.6095 70.6811 51.7047 67.9864 55.0681C67.893 55.1882 67.7996 55.3084 67.7034 55.4322C65.9085 57.7217 63.8728 59.8018 61.5285 61.5259C61.4083 61.6157 61.4083 61.6157 61.2857 61.7072C55.846 65.7617 49.351 68.0166 42.5594 67.9997C42.3351 67.9996 42.1108 67.9997 41.8865 67.9997C41.2821 67.9998 40.6777 67.999 40.0734 67.998C39.4401 67.9971 38.8068 67.997 38.1735 67.9968C36.9763 67.9964 35.7791 67.9953 34.5819 67.9939C33.2181 67.9923 31.8543 67.9915 30.4905 67.9908C27.6868 67.9893 24.8832 67.9869 22.0796 67.9837C22.08 68.0744 22.0804 68.1651 22.0808 68.2585C22.0901 70.4735 22.0971 72.6885 22.1014 74.9035C22.1036 75.9747 22.1065 77.0459 22.1114 78.1171C22.1156 79.0516 22.1183 79.9862 22.1192 80.9208C22.1198 81.4148 22.121 81.9088 22.1241 82.4028C22.1485 86.4495 21.6963 89.4691 18.8244 92.5077C17.4893 93.795 15.5566 95.0552 13.6264 95.0857C13.4973 95.0833 13.3682 95.081 13.2352 95.0786C13.2255 90.6862 13.2181 86.2939 13.2137 81.9015C13.2131 81.3818 13.2126 80.862 13.212 80.3423C13.2119 80.2389 13.2118 80.1354 13.2117 80.0288C13.2099 78.3583 13.2066 76.6878 13.2027 75.0173C13.1987 73.3005 13.1964 71.5837 13.1955 69.8669C13.195 68.8093 13.1932 67.7518 13.1897 66.6943C13.1872 65.8804 13.187 65.0666 13.1875 64.2527C13.1874 63.921 13.1866 63.5893 13.185 63.2576C13.1627 58.476 14.3646 54.4886 17.7215 50.9755C20.3709 48.3261 24.0103 46.7804 27.7466 46.7651C27.8921 46.7651 28.0377 46.7652 28.1876 46.7653C28.4228 46.7646 28.4228 46.7646 28.6627 46.7638C29.0014 46.7628 29.3401 46.762 29.6788 46.7615C30.2168 46.7605 30.7547 46.7583 31.2927 46.7557C32.8217 46.7484 34.3506 46.7416 35.8796 46.7394C36.8169 46.7381 37.754 46.7339 38.6913 46.728C39.0464 46.7263 39.4015 46.7256 39.7566 46.7259C42.1279 46.7275 44.3738 46.6961 46.4895 45.4866C46.588 45.4327 46.6866 45.3788 46.7881 45.3232C47.5115 44.9164 48.1595 44.447 48.7834 43.8979C49.034 43.6967 49.034 43.6967 49.3148 43.6967C49.3506 43.6152 49.3865 43.5338 49.4234 43.4499C49.6127 43.1038 49.8291 42.8731 50.1045 42.5911C52.2322 40.2356 53.2549 36.902 53.1266 33.775C53.0277 32.2637 52.637 30.884 51.9822 29.5175C51.9288 29.3983 51.8754 29.279 51.8204 29.1561C51.3786 28.2086 50.8007 27.3905 50.1571 26.5694C50.0737 26.4608 49.9903 26.3522 49.9043 26.2404C48.1473 24.1034 45.4197 22.7654 42.7166 22.3578C41.251 22.2365 39.7768 22.2552 38.3073 22.2582C37.7399 22.2587 37.1726 22.2551 36.6053 22.2521C35.5354 22.2468 34.4655 22.2451 33.3956 22.2447C32.1757 22.244 30.9558 22.2394 29.7359 22.2344C27.2306 22.2244 24.7253 22.2192 22.22 22.2174C22.2214 22.3433 22.2229 22.4693 22.2244 22.599C22.2292 23.0711 22.2328 23.543 22.2354 24.0151C22.2368 24.2185 22.2387 24.4219 22.2412 24.6253C22.266 26.7443 21.96 28.5172 20.4476 30.1317C19.3025 31.2091 18.0315 31.7841 16.4707 31.7774C16.378 31.7772 16.2853 31.777 16.1898 31.7768C15.8952 31.7761 15.6005 31.7743 15.3059 31.7725C15.1055 31.7718 14.9052 31.7712 14.7049 31.7706C14.215 31.769 13.7251 31.7666 13.2352 31.7637C13.2221 29.8685 13.2122 27.9732 13.2061 26.0779C13.2032 25.1977 13.1992 24.3176 13.1928 23.4374C13.1867 22.5872 13.1833 21.7371 13.1819 20.8869C13.1809 20.5633 13.1788 20.2398 13.1758 19.9162C13.1717 19.4613 13.1712 19.0065 13.1714 18.5515C13.1694 18.4192 13.1674 18.2869 13.1653 18.1506C13.1736 16.7889 13.5556 15.5959 14.5113 14.6057C16.1184 13.1071 17.6947 13.0296 19.8098 13.0377C20.0618 13.0371 20.3138 13.0364 20.5658 13.0354C21.2472 13.0335 21.9286 13.0343 22.61 13.0356C23.3262 13.0367 24.0424 13.0357 24.7587 13.035C25.9624 13.0342 27.1661 13.0353 28.3698 13.0373C29.7556 13.0395 31.1414 13.0388 32.5272 13.0365C33.7215 13.0346 34.9159 13.0343 36.1102 13.0354C36.8215 13.0361 37.5327 13.0362 38.244 13.0348C38.9142 13.0335 39.5844 13.0344 40.2546 13.0368C40.4984 13.0374 40.7423 13.0372 40.9862 13.0363C43.2316 13.0284 45.3756 13.2858 47.5073 14.031C47.6496 14.0798 47.7919 14.1286 47.9385 14.1788C53.0205 15.969 57.5465 19.8825 59.8913 24.7624C60.0185 25.0361 60.1423 25.311 60.265 25.5867C60.3412 25.755 60.4174 25.9233 60.4959 26.0967C62.6519 31.1511 62.7405 37.2171 60.7037 42.3199C58.4669 47.7661 54.5391 51.9303 49.1744 54.3661C49.0144 54.4423 48.8545 54.5185 48.6896 54.597C46.0143 55.7817 43.1225 56.0137 40.232 55.9935C39.7069 55.9898 39.1819 55.9906 38.6568 55.9923C37.6385 55.9949 36.6203 55.9931 35.602 55.9901C34.2115 55.9863 32.821 55.9855 31.4305 55.9894C30.9168 55.9899 30.4032 55.987 29.8895 55.9838C27.6504 55.9808 25.4792 56.0267 23.7911 57.7075C23.4257 58.1168 23.1629 58.5061 22.9219 58.9989C25.5776 58.9904 28.2333 58.9795 30.889 58.9658C32.1224 58.9596 33.3558 58.954 34.5892 58.9503C35.6658 58.947 36.7423 58.9423 37.8189 58.9359C38.3876 58.9326 38.9562 58.93 39.5249 58.9291C42.6302 58.9236 45.7063 58.8938 48.683 57.9022C48.8374 57.8524 48.9918 57.8026 49.1509 57.7512C55.2758 55.7423 60.1359 51.457 63.0524 45.7128C63.9309 43.9016 64.5889 42.0071 65.0382 40.0466C65.0657 39.9319 65.0933 39.8172 65.1216 39.6991C66.0438 35.7164 65.9038 31.3567 64.8978 27.4117C64.8413 27.1683 64.7851 26.9248 64.7295 26.6813C63.9443 23.3608 62.3773 20.3916 60.265 17.725C60.1714 17.6059 60.1714 17.6059 60.0759 17.4844C58.6395 15.6737 57.0149 14.2033 55.0707 12.9518C54.9266 12.8568 54.7826 12.7618 54.6342 12.6639C52.2509 11.1373 49.6544 10.1069 46.8843 9.53861C46.7755 9.51621 46.6667 9.49382 46.5546 9.47075C44.6085 9.10076 42.634 9.13969 40.6619 9.1387C40.3577 9.13805 40.0536 9.13734 39.7495 9.13658C38.9284 9.13475 38.1073 9.13384 37.2862 9.13321C36.7727 9.1328 36.2592 9.13222 35.7458 9.1316C34.1375 9.12968 32.5292 9.12832 30.9209 9.12778C29.067 9.12715 27.2131 9.12468 25.3592 9.12062C23.9235 9.11759 22.4877 9.11617 21.052 9.11598C20.1955 9.11583 19.3389 9.11501 18.4824 9.1125C17.6777 9.11018 16.8731 9.10988 16.0684 9.11111C15.7735 9.11122 15.4785 9.11061 15.1836 9.10922C14.7804 9.10744 14.3774 9.10826 13.9742 9.10973C13.858 9.10859 13.7418 9.10746 13.6221 9.1063C12.5049 9.11576 11.5999 9.45048 10.7082 10.144C9.91071 10.9605 9.28771 12.0895 9.28598 13.2526C9.2852 13.4315 9.2852 13.4315 9.28441 13.614C9.28456 13.7454 9.2847 13.8767 9.28485 14.012C9.28445 14.1519 9.28405 14.2917 9.28364 14.4358C9.28246 14.909 9.28229 15.3823 9.2821 15.8555C9.28146 16.1964 9.28076 16.5372 9.28 16.8781C9.27849 17.6215 9.27742 18.365 9.27672 19.1084C9.27568 20.2139 9.27384 21.3194 9.27184 22.4248C9.26849 24.2843 9.2658 26.1437 9.26347 28.0031C9.26117 29.8447 9.25857 31.6864 9.25559 33.5281C9.25541 33.6425 9.25522 33.7569 9.25503 33.8748C9.25409 34.4558 9.25315 35.0368 9.2522 35.6178C9.24549 39.7356 9.23943 43.8533 9.23374 47.9711C9.22822 51.972 9.22241 55.9729 9.2162 59.9738C9.216 60.0971 9.21581 60.2204 9.21562 60.3474C9.2137 61.5853 9.21177 62.8233 9.20984 64.0612C9.2059 66.5832 9.20201 69.1052 9.19814 71.6272C9.19796 71.7431 9.19778 71.8591 9.1976 71.9786C9.18571 79.7254 9.17475 87.4722 9.16393 95.219C8.76158 95.2232 8.35928 95.2264 7.95692 95.2288C7.84397 95.2302 7.73102 95.2315 7.61464 95.2328C5.52598 95.2424 3.84546 94.4721 2.33484 93.0408C0.1042 90.688 -0.00380096 88.2063 0.00307731 85.1296C0.00275359 84.8149 0.00230776 84.5001 0.00175025 84.1854C0.000579518 83.3225 0.00115632 82.4596 0.00202659 81.5966C0.00259682 80.7609 0.00184813 79.9252 0.00114296 79.0895C-0.000333957 77.275 -0.000207349 75.4606 0.000604205 73.6461C0.0013111 72.0578 0.00149425 70.4695 0.00115902 68.8811C0.00113757 68.7757 0.00111578 68.6703 0.00109369 68.5616C0.00100627 68.1336 0.000917505 67.7055 0.000824846 67.2774C-3.37924e-05 63.2628 0.000744065 59.2482 0.0022558 55.2336C0.00358754 51.6699 0.0034694 48.1062 0.0021262 44.5425C0.000621208 40.5361 2.77269e-05 36.5298 0.000894466 32.5235C0.000984511 32.096 0.00107212 31.6685 0.00115902 31.241C0.00118122 31.1358 0.00120362 31.0305 0.0012265 30.9221C0.0015453 29.3356 0.00117322 27.7491 0.000462824 26.1626C-0.000341498 24.3573 -0.000136123 22.5521 0.00138395 20.7468C0.00213368 19.8262 0.0024133 18.9055 0.00148248 17.9849C0.000642358 17.1412 0.00111171 16.2974 0.00259961 15.4537C0.00291178 15.1494 0.00275675 14.8451 0.00207265 14.5408C-0.00685247 10.239 0.733194 6.63977 3.7941 3.3791C6.13382 1.15058 9.17614 0.0118038 12.3824 0.0173482Z" fill="white"/>
<path d="M19.8098 13.0377C20.0618 13.0371 20.3138 13.0364 20.5658 13.0354C21.2472 13.0335 21.9286 13.0343 22.61 13.0356C23.3262 13.0367 24.0424 13.0357 24.7587 13.035C25.9624 13.0342 27.1661 13.0353 28.3698 13.0373C29.7556 13.0395 31.1414 13.0388 32.5272 13.0365C33.7215 13.0346 34.9159 13.0343 36.1102 13.0354C36.8215 13.0361 37.5327 13.0362 38.244 13.0348C38.9142 13.0335 39.5844 13.0344 40.2546 13.0368C40.4984 13.0374 40.7423 13.0372 40.9862 13.0363C43.2316 13.0284 45.3756 13.2858 47.5073 14.031C47.6496 14.0798 47.7919 14.1286 47.9385 14.1788C53.0205 15.969 57.5465 19.8825 59.8913 24.7624C60.0185 25.0361 60.1423 25.311 60.265 25.5867C60.3412 25.755 60.4174 25.9233 60.4959 26.0967C62.6519 31.1511 62.7405 37.2171 60.7037 42.3199C58.4669 47.7661 54.5391 51.9303 49.1744 54.3661C49.0144 54.4423 48.8545 54.5185 48.6896 54.597C46.0143 55.7817 43.1225 56.0137 40.232 55.9935C39.7069 55.9898 39.1819 55.9906 38.6568 55.9923C37.6385 55.9949 36.6203 55.9931 35.602 55.9901C34.2115 55.9863 32.821 55.9855 31.4305 55.9894C30.9168 55.9899 30.4032 55.987 29.8895 55.9838C27.6405 55.9808 25.527 56.0404 23.8056 57.6828C22.6939 58.8956 22.1855 60.2612 22.1834 61.8989C22.1829 62.001 22.1824 62.1031 22.1818 62.2082C22.1805 62.5471 22.181 62.886 22.1816 63.2249C22.181 63.4692 22.1802 63.7135 22.1794 63.9578C22.1778 64.4826 22.177 65.0074 22.1769 65.5322C22.1766 66.3638 22.174 67.1954 22.1711 68.0269C22.1642 70.093 22.1599 72.1591 22.1569 74.2252C22.1546 75.8302 22.1514 77.4353 22.1453 79.0403C22.1422 79.8651 22.1411 80.6898 22.1414 81.5146C22.1411 82.0304 22.1392 82.5461 22.1367 83.0619C22.1359 83.299 22.1359 83.536 22.1366 83.7731C22.1459 87.2338 21.2364 89.9556 18.8244 92.5077C17.4893 93.795 15.5566 95.0552 13.6264 95.0857C13.4973 95.0833 13.3682 95.081 13.2352 95.0786C13.2255 90.6862 13.2181 86.2939 13.2137 81.9015C13.2131 81.3818 13.2126 80.862 13.212 80.3423C13.2119 80.2389 13.2118 80.1354 13.2117 80.0288C13.2099 78.3583 13.2066 76.6878 13.2027 75.0173C13.1987 73.3005 13.1964 71.5837 13.1955 69.8669C13.195 68.8093 13.1932 67.7518 13.1897 66.6943C13.1872 65.8804 13.187 65.0666 13.1875 64.2527C13.1874 63.921 13.1866 63.5893 13.185 63.2576C13.1627 58.476 14.3646 54.4886 17.7215 50.9755C20.3709 48.3261 24.0103 46.7804 27.7466 46.7651C27.8921 46.7651 28.0377 46.7652 28.1876 46.7653C28.3444 46.7648 28.5012 46.7643 28.6627 46.7638C29.0014 46.7628 29.3401 46.762 29.6788 46.7615C30.2168 46.7605 30.7547 46.7583 31.2927 46.7557C32.8217 46.7484 34.3506 46.7416 35.8796 46.7394C36.8169 46.7381 37.754 46.7339 38.6913 46.728C39.0464 46.7263 39.4015 46.7256 39.7566 46.7259C42.1279 46.7275 44.3738 46.6961 46.4895 45.4866C46.588 45.4327 46.6866 45.3788 46.7881 45.3232C47.5115 44.9164 48.1595 44.447 48.7834 43.8979C49.034 43.6967 49.034 43.6967 49.3148 43.6967C49.3506 43.6152 49.3865 43.5338 49.4234 43.4499C49.6127 43.1038 49.8291 42.8731 50.1045 42.5911C52.2322 40.2356 53.2549 36.902 53.1266 33.775C53.0277 32.2637 52.637 30.884 51.9822 29.5175C51.9288 29.3983 51.8754 29.279 51.8204 29.1561C51.3786 28.2086 50.8007 27.3905 50.1571 26.5694C50.0737 26.4608 49.9903 26.3522 49.9043 26.2404C48.1473 24.1034 45.4197 22.7654 42.7166 22.3578C41.251 22.2365 39.7768 22.2552 38.3073 22.2582C37.7399 22.2587 37.1726 22.2551 36.6053 22.2521C35.5354 22.2468 34.4655 22.2451 33.3956 22.2447C32.1757 22.244 30.9558 22.2394 29.7359 22.2344C27.2306 22.2244 24.7253 22.2192 22.22 22.2174C22.2214 22.3433 22.2229 22.4693 22.2244 22.599C22.2292 23.0711 22.2328 23.543 22.2354 24.0151C22.2368 24.2185 22.2387 24.4219 22.2412 24.6253C22.266 26.7443 21.96 28.5172 20.4476 30.1317C19.3025 31.2091 18.0315 31.7841 16.4707 31.7774C16.378 31.7772 16.2853 31.777 16.1898 31.7768C15.8952 31.7761 15.6005 31.7743 15.3059 31.7725C15.1055 31.7718 14.9052 31.7712 14.7049 31.7706C14.215 31.769 13.7251 31.7666 13.2352 31.7637C13.2221 29.8685 13.2122 27.9732 13.2061 26.0779C13.2032 25.1977 13.1992 24.3176 13.1928 23.4374C13.1867 22.5872 13.1833 21.7371 13.1819 20.8869C13.1809 20.5633 13.1788 20.2398 13.1758 19.9162C13.1717 19.4613 13.1712 19.0065 13.1714 18.5515C13.1694 18.4192 13.1674 18.2869 13.1653 18.1506C13.1736 16.7889 13.5556 15.5959 14.5113 14.6057C16.1184 13.1071 17.6947 13.0296 19.8098 13.0377Z" fill="#F59E25"/>
<path d="M195.672 95V25H208.272V51.5H210.072C210.605 50.4333 211.439 49.3667 212.572 48.3C213.705 47.2333 215.205 46.3667 217.072 45.7C219.005 44.9667 221.439 44.6 224.372 44.6C228.239 44.6 231.605 45.5 234.472 47.3C237.405 49.0333 239.672 51.4667 241.272 54.6C242.872 57.6667 243.672 61.2667 243.672 65.4V95H231.072V66.4C231.072 62.6667 230.139 59.8667 228.272 58C226.472 56.1333 223.872 55.2 220.472 55.2C216.605 55.2 213.605 56.5 211.472 59.1C209.339 61.6333 208.272 65.2 208.272 69.8V95H195.672Z" fill="white"/>
<path d="M163.83 96.4C157.364 96.4 152.064 95 147.93 92.2C143.797 89.4 141.297 85.4 140.43 80.2L152.03 77.2C152.497 79.5333 153.264 81.3667 154.33 82.7C155.464 84.0333 156.83 85 158.43 85.6C160.097 86.1333 161.897 86.4 163.83 86.4C166.764 86.4 168.93 85.9 170.33 84.9C171.73 83.8333 172.43 82.5333 172.43 81C172.43 79.4667 171.764 78.3 170.43 77.5C169.097 76.6333 166.964 75.9333 164.03 75.4L161.23 74.9C157.764 74.2333 154.597 73.3333 151.73 72.2C148.864 71 146.564 69.3667 144.83 67.3C143.097 65.2333 142.23 62.5667 142.23 59.3C142.23 54.3667 144.03 50.6 147.63 48C151.23 45.3333 155.964 44 161.83 44C167.364 44 171.964 45.2333 175.63 47.7C179.297 50.1667 181.697 53.4 182.83 57.4L171.13 61C170.597 58.4667 169.497 56.6667 167.83 55.6C166.23 54.5333 164.23 54 161.83 54C159.43 54 157.597 54.4333 156.33 55.3C155.064 56.1 154.43 57.2333 154.43 58.7C154.43 60.3 155.097 61.5 156.43 62.3C157.764 63.0333 159.564 63.6 161.83 64L164.63 64.5C168.364 65.1667 171.73 66.0667 174.73 67.2C177.797 68.2667 180.197 69.8333 181.93 71.9C183.73 73.9 184.63 76.6333 184.63 80.1C184.63 85.3 182.73 89.3333 178.93 92.2C175.197 95 170.164 96.4 163.83 96.4Z" fill="white"/>
<path d="M105.6 96.4C100.667 96.4 96.2333 95.4 92.3 93.4C88.3667 91.4 85.2667 88.5 83 84.7C80.7333 80.9 79.6 76.3333 79.6 71V69.4C79.6 64.0667 80.7333 59.5 83 55.7C85.2667 51.9 88.3667 49 92.3 47C96.2333 45 100.667 44 105.6 44C110.533 44 114.967 45 118.9 47C122.833 49 125.933 51.9 128.2 55.7C130.467 59.5 131.6 64.0667 131.6 69.4V71C131.6 76.3333 130.467 80.9 128.2 84.7C125.933 88.5 122.833 91.4 118.9 93.4C114.967 95.4 110.533 96.4 105.6 96.4ZM105.6 85.2C109.467 85.2 112.667 83.9667 115.2 81.5C117.733 78.9667 119 75.3667 119 70.7V69.7C119 65.0333 117.733 61.4667 115.2 59C112.733 56.4667 109.533 55.2 105.6 55.2C101.733 55.2 98.5333 56.4667 96 59C93.4667 61.4667 92.2 65.0333 92.2 69.7V70.7C92.2 75.3667 93.4667 78.9667 96 81.5C98.5333 83.9667 101.733 85.2 105.6 85.2Z" fill="white"/>
<path d="M583.934 95C580.667 95 578 94 575.934 92C573.934 89.9333 572.934 87.2 572.934 83.8V55.8H560.534V45.4H572.934V30H585.534V45.4H599.134V55.8H585.534V81.6C585.534 83.6 586.467 84.6 588.334 84.6H597.934V95H583.934Z" fill="#F59E25"/>
<path d="M502.824 115V45.4H515.224V51.4H517.024C518.158 49.4667 519.924 47.7667 522.324 46.3C524.724 44.7667 528.158 44 532.624 44C536.624 44 540.324 45 543.724 47C547.124 48.9333 549.858 51.8 551.924 55.6C553.991 59.4 555.024 64 555.024 69.4V71C555.024 76.4 553.991 81 551.924 84.8C549.858 88.6 547.124 91.5 543.724 93.5C540.324 95.4333 536.624 96.4 532.624 96.4C529.624 96.4 527.091 96.0333 525.024 95.3C523.024 94.6333 521.391 93.7667 520.124 92.7C518.924 91.5667 517.958 90.4333 517.224 89.3H515.424V115H502.824ZM528.824 85.4C532.758 85.4 535.991 84.1667 538.524 81.7C541.124 79.1667 542.424 75.5 542.424 70.7V69.7C542.424 64.9 541.124 61.2667 538.524 58.8C535.924 56.2667 532.691 55 528.824 55C524.958 55 521.724 56.2667 519.124 58.8C516.524 61.2667 515.224 64.9 515.224 69.7V70.7C515.224 75.5 516.524 79.1667 519.124 81.7C521.724 84.1667 524.958 85.4 528.824 85.4Z" fill="#F59E25"/>
<path d="M417.473 95V45.4H429.873V50.8H431.673C432.539 49.1333 433.973 47.7 435.973 46.5C437.973 45.2333 440.606 44.6 443.873 44.6C447.406 44.6 450.239 45.3 452.373 46.7C454.506 48.0333 456.139 49.8 457.273 52H459.073C460.206 49.8667 461.806 48.1 463.873 46.7C465.939 45.3 468.873 44.6 472.673 44.6C475.739 44.6 478.506 45.2667 480.973 46.6C483.506 47.8667 485.506 49.8333 486.973 52.5C488.506 55.1 489.273 58.4 489.273 62.4V95H476.673V63.3C476.673 60.5667 475.973 58.5333 474.573 57.2C473.173 55.8 471.206 55.1 468.673 55.1C465.806 55.1 463.573 56.0333 461.973 57.9C460.439 59.7 459.673 62.3 459.673 65.7V95H447.073V63.3C447.073 60.5667 446.373 58.5333 444.973 57.2C443.573 55.8 441.606 55.1 439.073 55.1C436.206 55.1 433.973 56.0333 432.373 57.9C430.839 59.7 430.073 62.3 430.073 65.7V95H417.473Z" fill="#F59E25"/>
<path d="M379.842 96.4C374.909 96.4 370.476 95.4 366.542 93.4C362.609 91.4 359.509 88.5 357.242 84.7C354.976 80.9 353.842 76.3333 353.842 71V69.4C353.842 64.0667 354.976 59.5 357.242 55.7C359.509 51.9 362.609 49 366.542 47C370.476 45 374.909 44 379.842 44C384.776 44 389.209 45 393.142 47C397.076 49 400.176 51.9 402.442 55.7C404.709 59.5 405.842 64.0667 405.842 69.4V71C405.842 76.3333 404.709 80.9 402.442 84.7C400.176 88.5 397.076 91.4 393.142 93.4C389.209 95.4 384.776 96.4 379.842 96.4ZM379.842 85.2C383.709 85.2 386.909 83.9667 389.442 81.5C391.976 78.9667 393.242 75.3667 393.242 70.7V69.7C393.242 65.0333 391.976 61.4667 389.442 59C386.976 56.4667 383.776 55.2 379.842 55.2C375.976 55.2 372.776 56.4667 370.242 59C367.709 61.4667 366.442 65.0333 366.442 69.7V70.7C366.442 75.3667 367.709 78.9667 370.242 81.5C372.776 83.9667 375.976 85.2 379.842 85.2Z" fill="#F59E25"/>
<path d="M318.352 95V45.4H330.752V51H332.552C333.285 49 334.485 47.5333 336.152 46.6C337.885 45.6667 339.885 45.2 342.152 45.2H348.152V56.4H341.952C338.752 56.4 336.118 57.2667 334.052 59C331.985 60.6667 330.952 63.2667 330.952 66.8V95H318.352Z" fill="#F59E25"/>
<path d="M257.6 95V25H286.4C290.8 25 294.667 25.9 298 27.7C301.4 29.4333 304.033 31.9 305.9 35.1C307.833 38.3 308.8 42.1 308.8 46.5V47.9C308.8 52.2333 307.8 56.0333 305.8 59.3C303.867 62.5 301.2 65 297.8 66.8C294.467 68.5333 290.667 69.4 286.4 69.4H270.8V95H257.6ZM270.8 57.4H285.1C288.233 57.4 290.767 56.5333 292.7 54.8C294.633 53.0667 295.6 50.7 295.6 47.7V46.7C295.6 43.7 294.633 41.3333 292.7 39.6C290.767 37.8667 288.233 37 285.1 37H270.8V57.4Z" fill="#F59E25"/>
</svg>
