<svg width="2547" height="596" viewBox="0 0 2547 596" fill="none" xmlns="http://www.w3.org/2000/svg">
<path d="M136.529 108.069C137.075 108.068 137.62 108.067 138.182 108.066C140.002 108.062 141.822 108.062 143.641 108.063C144.95 108.061 146.258 108.059 147.567 108.057C151.117 108.052 154.668 108.051 158.219 108.051C160.442 108.05 162.665 108.049 164.888 108.047C172.257 108.043 179.626 108.04 186.995 108.04C187.391 108.04 187.788 108.04 188.197 108.04C188.594 108.04 188.992 108.04 189.401 108.04C195.82 108.041 202.238 108.035 208.657 108.027C215.268 108.019 221.879 108.015 228.49 108.016C232.193 108.016 235.897 108.015 239.6 108.009C243.091 108.003 246.582 108.003 250.073 108.007C251.345 108.008 252.616 108.006 253.888 108.003C264.08 107.977 274.529 108.058 284.47 110.566C285.234 110.75 285.234 110.75 286.014 110.938C302.084 114.894 317.429 121.43 330.868 131.168C331.183 131.396 331.498 131.624 331.823 131.858C336.105 134.986 340.119 138.371 343.948 142.042C344.627 142.693 345.31 143.34 345.995 143.984C355.339 152.806 362.672 162.72 369.053 173.846C369.253 174.186 369.453 174.526 369.659 174.876C388.316 206.701 390.98 246.596 382.121 281.818C377.614 298.438 369.724 314.819 358.945 328.272C358.572 328.753 358.198 329.234 357.814 329.729C350.634 338.887 342.491 347.207 333.114 354.104C332.633 354.463 332.633 354.463 332.143 354.829C310.384 371.047 284.404 380.067 257.237 379.999C256.34 379.999 255.443 379.999 254.546 379.999C252.128 379.999 249.711 379.996 247.293 379.992C244.76 379.988 242.227 379.988 239.694 379.987C234.905 379.986 230.116 379.981 225.328 379.975C219.872 379.969 214.417 379.966 208.962 379.963C197.747 379.957 186.533 379.948 175.318 379.935C175.32 380.298 175.321 380.66 175.323 381.034C175.36 389.894 175.388 398.754 175.406 407.614C175.414 411.899 175.426 416.183 175.445 420.468C175.462 424.207 175.473 427.945 175.477 431.683C175.479 433.659 175.484 435.635 175.496 437.611C175.594 453.798 173.785 465.876 162.297 478.031C156.957 483.18 149.226 488.221 141.506 488.343C140.989 488.333 140.473 488.324 139.941 488.314C139.902 470.745 139.872 453.175 139.855 435.606C139.853 433.527 139.85 431.448 139.848 429.369C139.848 428.955 139.847 428.542 139.847 428.115C139.839 421.433 139.826 414.751 139.811 408.069C139.795 401.202 139.786 394.335 139.782 387.467C139.78 383.237 139.773 379.007 139.759 374.777C139.749 371.522 139.748 368.266 139.75 365.011C139.75 363.684 139.746 362.357 139.74 361.03C139.651 341.904 144.459 325.954 157.886 311.902C168.483 301.305 183.041 295.122 197.986 295.06C198.569 295.061 199.151 295.061 199.75 295.061C200.691 295.058 200.691 295.058 201.651 295.055C203.006 295.051 204.36 295.048 205.715 295.046C207.867 295.042 210.019 295.033 212.171 295.023C218.287 294.994 224.403 294.966 230.519 294.958C234.267 294.953 238.016 294.936 241.765 294.912C243.185 294.905 244.606 294.902 246.026 294.904C255.512 294.91 264.495 294.784 272.958 289.946C273.352 289.731 273.746 289.515 274.152 289.293C277.046 287.666 279.638 285.788 282.134 283.592C283.136 282.787 283.136 282.787 284.259 282.787C284.402 282.461 284.546 282.135 284.693 281.8C285.451 280.415 286.316 279.492 287.418 278.365C295.929 268.942 300.02 255.608 299.507 243.1C299.111 237.055 297.548 231.536 294.929 226.07C294.715 225.593 294.502 225.116 294.282 224.625C292.514 220.835 290.203 217.562 287.628 214.278C287.295 213.843 286.961 213.409 286.617 212.961C279.589 204.413 268.679 199.061 257.866 197.431C252.004 196.946 246.107 197.021 240.229 197.033C237.96 197.035 235.69 197.021 233.421 197.008C229.142 196.987 224.862 196.98 220.583 196.979C215.703 196.976 210.823 196.958 205.944 196.938C195.922 196.898 185.901 196.877 175.88 196.869C175.886 197.373 175.892 197.877 175.898 198.396C175.917 200.284 175.931 202.172 175.942 204.06C175.947 204.874 175.955 205.688 175.965 206.501C176.064 214.977 174.84 222.069 168.79 228.527C164.21 232.836 159.126 235.136 152.883 235.11C152.512 235.109 152.141 235.108 151.759 235.107C150.581 235.104 149.402 235.097 148.224 235.09C147.422 235.087 146.621 235.085 145.819 235.082C143.86 235.076 141.9 235.066 139.941 235.055C139.889 227.474 139.849 219.893 139.824 212.312C139.813 208.791 139.797 205.27 139.771 201.75C139.747 198.349 139.733 194.948 139.728 191.548C139.723 190.253 139.715 188.959 139.703 187.665C139.687 185.845 139.685 184.026 139.686 182.206C139.678 181.677 139.67 181.148 139.661 180.603C139.695 175.155 141.222 170.384 145.045 166.423C151.474 160.428 157.779 160.118 166.239 160.151C167.247 160.148 168.255 160.145 169.263 160.142C171.989 160.134 174.714 160.137 177.44 160.142C180.305 160.147 183.17 160.143 186.035 160.14C190.85 160.137 195.664 160.141 200.479 160.149C206.023 160.158 211.566 160.155 217.109 160.146C221.886 160.138 226.663 160.137 231.441 160.142C234.286 160.144 237.131 160.145 239.976 160.139C242.657 160.134 245.337 160.138 248.018 160.147C248.994 160.15 249.969 160.149 250.945 160.145C259.927 160.114 268.502 161.143 277.029 164.124C277.598 164.319 278.167 164.514 278.754 164.715C299.082 171.876 317.186 187.53 326.565 207.05C327.074 208.144 327.569 209.244 328.06 210.347C328.365 211.02 328.67 211.693 328.984 212.387C337.608 232.604 337.962 256.868 329.815 277.28C320.868 299.064 305.156 315.721 283.698 325.465C283.058 325.769 282.418 326.074 281.759 326.388C271.057 331.127 259.49 332.055 247.928 331.974C245.827 331.959 243.728 331.962 241.627 331.969C237.554 331.98 233.481 331.972 229.408 331.961C223.846 331.945 218.284 331.942 212.722 331.958C210.667 331.96 208.613 331.948 206.558 331.935C197.601 331.923 188.917 332.107 182.164 338.83C180.703 340.467 179.651 342.025 178.688 343.996C189.31 343.962 199.933 343.918 210.556 343.863C215.49 343.838 220.423 343.816 225.357 343.801C229.663 343.788 233.969 343.769 238.276 343.744C240.55 343.73 242.825 343.72 245.099 343.716C257.521 343.694 269.825 343.575 281.732 339.609C282.35 339.409 282.967 339.21 283.603 339.005C308.103 330.969 327.544 313.828 339.21 290.851C342.723 283.606 345.356 276.028 347.153 268.186C347.263 267.728 347.373 267.269 347.487 266.796C351.175 250.866 350.615 233.427 346.591 217.647C346.365 216.673 346.141 215.699 345.918 214.725C342.777 201.443 336.509 189.566 328.06 178.9C327.686 178.423 327.686 178.423 327.304 177.937C321.558 170.695 315.059 164.813 307.283 159.807C306.707 159.427 306.13 159.047 305.537 158.656C296.003 152.549 285.617 148.428 274.537 146.154C274.102 146.065 273.667 145.975 273.218 145.883C265.434 144.403 257.536 144.559 249.647 144.555C248.431 144.552 247.215 144.549 245.998 144.546C242.714 144.539 239.429 144.535 236.145 144.533C234.091 144.531 232.037 144.529 229.983 144.526C223.55 144.519 217.117 144.513 210.683 144.511C203.268 144.509 195.852 144.499 188.437 144.482C182.694 144.47 176.951 144.465 171.208 144.464C167.782 144.463 164.356 144.46 160.93 144.45C157.711 144.441 154.492 144.44 151.274 144.444C150.094 144.445 148.914 144.442 147.734 144.437C146.122 144.43 144.51 144.433 142.897 144.439C142.432 144.434 141.967 144.43 141.488 144.425C137.019 144.463 133.4 145.802 129.833 148.576C126.643 151.842 124.151 156.358 124.144 161.01C124.141 161.726 124.141 161.726 124.138 162.456C124.138 162.982 124.139 163.507 124.139 164.048C124.138 164.607 124.136 165.167 124.135 165.743C124.13 167.636 124.129 169.529 124.128 171.422C124.126 172.785 124.123 174.149 124.12 175.512C124.114 178.486 124.11 181.46 124.107 184.434C124.103 188.856 124.095 193.277 124.087 197.699C124.074 205.137 124.063 212.575 124.054 220.012C124.045 227.379 124.034 234.746 124.022 242.112C124.022 242.57 124.021 243.028 124.02 243.499C124.016 245.823 124.013 248.147 124.009 250.471C123.982 266.942 123.958 283.413 123.935 299.884C123.913 315.888 123.89 331.892 123.865 347.895C123.864 348.388 123.863 348.881 123.862 349.389C123.855 354.341 123.847 359.293 123.839 364.245C123.824 374.333 123.808 384.421 123.793 394.509C123.792 394.973 123.791 395.436 123.79 395.914C123.743 426.901 123.699 457.889 123.656 488.876C122.046 488.893 120.437 488.905 118.828 488.915C118.376 488.921 117.924 488.926 117.459 488.931C109.104 488.97 102.382 485.888 96.3393 480.163C87.4168 470.752 86.9848 460.825 87.0123 448.519C87.011 447.26 87.0092 446.001 87.007 444.742C87.0023 441.29 87.0046 437.838 87.0081 434.387C87.0104 431.044 87.0074 427.701 87.0046 424.358C86.9987 417.1 86.9992 409.842 87.0024 402.584C87.0052 396.231 87.006 389.878 87.0046 383.525C87.0046 383.103 87.0045 382.681 87.0044 382.246C87.004 380.534 87.0037 378.822 87.0033 377.11C86.9999 361.051 87.003 344.993 87.009 328.934C87.0144 314.679 87.0139 300.425 87.0085 286.17C87.0025 270.145 87.0001 254.119 87.0036 238.094C87.0039 236.384 87.0043 234.674 87.0046 232.964C87.0047 232.543 87.0048 232.122 87.0049 231.688C87.0062 225.342 87.0047 218.996 87.0019 212.65C86.9986 205.429 86.9995 198.208 87.0055 190.987C87.0085 187.305 87.0097 183.622 87.0059 179.94C87.0026 176.565 87.0044 173.19 87.0104 169.815C87.0116 168.598 87.011 167.381 87.0083 166.163C86.9726 148.956 89.9328 134.559 102.176 121.516C111.535 112.602 123.705 108.047 136.529 108.069Z" fill="white"/>
<path d="M166.238 160.151C167.246 160.148 168.254 160.145 169.262 160.142C171.988 160.134 174.713 160.137 177.439 160.142C180.304 160.147 183.169 160.143 186.034 160.14C190.849 160.137 195.663 160.141 200.478 160.149C206.021 160.158 211.565 160.155 217.108 160.146C221.885 160.138 226.662 160.137 231.44 160.142C234.285 160.144 237.13 160.145 239.975 160.139C242.656 160.134 245.336 160.138 248.017 160.147C248.993 160.149 249.968 160.149 250.944 160.145C259.925 160.114 268.501 161.143 277.028 164.124C277.597 164.319 278.166 164.514 278.753 164.715C299.081 171.876 317.185 187.53 326.564 207.05C327.073 208.144 327.568 209.244 328.059 210.347C328.364 211.02 328.669 211.693 328.983 212.387C337.607 232.604 337.961 256.868 329.814 277.28C320.867 299.064 305.155 315.721 283.697 325.465C283.057 325.769 282.417 326.074 281.757 326.388C271.056 331.127 259.489 332.055 247.927 331.974C245.826 331.959 243.726 331.962 241.626 331.969C237.553 331.98 233.48 331.972 229.407 331.961C223.845 331.945 218.283 331.942 212.721 331.958C210.666 331.96 208.612 331.948 206.557 331.935C197.561 331.923 189.108 332.162 182.223 338.731C177.776 343.582 175.742 349.045 175.734 355.595C175.732 356.004 175.73 356.412 175.728 356.833C175.722 358.188 175.724 359.544 175.727 360.899C175.724 361.877 175.721 362.854 175.718 363.831C175.711 365.93 175.708 368.03 175.708 370.129C175.707 373.455 175.696 376.781 175.685 380.108C175.657 388.372 175.64 396.636 175.628 404.901C175.619 411.321 175.606 417.741 175.581 424.161C175.569 427.46 175.564 430.759 175.566 434.058C175.565 436.121 175.557 438.185 175.547 440.248C175.544 441.196 175.544 442.144 175.546 443.092C175.584 456.935 171.945 467.822 162.296 478.031C156.956 483.18 149.225 488.221 141.505 488.343C140.988 488.333 140.472 488.324 139.94 488.314C139.901 470.745 139.871 453.175 139.854 435.606C139.851 433.527 139.849 431.448 139.847 429.369C139.847 428.955 139.846 428.542 139.846 428.115C139.838 421.433 139.825 414.751 139.81 408.069C139.794 401.202 139.785 394.335 139.781 387.467C139.779 383.237 139.772 379.007 139.758 374.777C139.748 371.522 139.747 368.266 139.749 365.011C139.749 363.684 139.745 362.357 139.739 361.03C139.65 341.904 144.458 325.954 157.885 311.902C168.482 301.304 183.04 295.122 197.985 295.06C198.568 295.061 199.15 295.061 199.749 295.061C200.376 295.059 201.004 295.057 201.65 295.055C203.005 295.051 204.359 295.048 205.714 295.046C207.866 295.042 210.018 295.033 212.17 295.023C218.286 294.994 224.401 294.966 230.517 294.958C234.266 294.953 238.015 294.936 241.764 294.912C243.184 294.905 244.605 294.902 246.025 294.904C255.51 294.91 264.494 294.784 272.957 289.946C273.351 289.731 273.745 289.515 274.151 289.293C277.045 287.666 279.637 285.788 282.133 283.592C283.135 282.787 283.135 282.787 284.258 282.787C284.401 282.461 284.545 282.135 284.692 281.8C285.45 280.415 286.315 279.492 287.417 278.364C295.928 268.942 300.019 255.608 299.506 243.1C299.11 237.055 297.547 231.536 294.928 226.07C294.714 225.593 294.5 225.116 294.28 224.625C292.513 220.835 290.202 217.562 287.627 214.278C287.294 213.843 286.96 213.409 286.616 212.961C279.588 204.413 268.678 199.061 257.865 197.431C252.003 196.946 246.106 197.021 240.228 197.033C237.959 197.035 235.689 197.021 233.42 197.008C229.141 196.987 224.861 196.98 220.582 196.979C215.702 196.976 210.822 196.957 205.943 196.938C195.921 196.898 185.9 196.877 175.879 196.869C175.885 197.373 175.891 197.877 175.897 198.396C175.916 200.284 175.93 202.172 175.941 204.06C175.946 204.874 175.954 205.687 175.964 206.501C176.063 214.977 174.839 222.069 168.789 228.527C164.209 232.836 159.125 235.136 152.882 235.11C152.511 235.109 152.14 235.108 151.758 235.107C150.58 235.104 149.401 235.097 148.222 235.09C147.421 235.087 146.62 235.085 145.818 235.082C143.859 235.076 141.899 235.066 139.94 235.055C139.887 227.474 139.848 219.893 139.823 212.312C139.812 208.791 139.796 205.27 139.77 201.75C139.746 198.349 139.732 194.948 139.727 191.548C139.722 190.253 139.714 188.959 139.702 187.665C139.686 185.845 139.684 184.026 139.685 182.206C139.677 181.677 139.668 181.148 139.66 180.602C139.693 175.155 141.221 170.383 145.044 166.423C151.473 160.428 157.778 160.118 166.238 160.151Z" fill="#F59E25"/>
<path d="M1061.35 384.667V142H1105.06V233.867H1111.3C1113.15 230.169 1116.04 226.471 1119.98 222.773C1123.91 219.076 1129.11 216.071 1135.59 213.76C1142.29 211.218 1150.73 209.947 1160.91 209.947C1174.32 209.947 1186 213.067 1195.95 219.307C1206.12 225.316 1213.99 233.751 1219.54 244.613C1225.09 255.244 1227.86 267.724 1227.86 282.053V384.667H1184.15V285.52C1184.15 272.578 1180.92 262.871 1174.44 256.4C1168.2 249.929 1159.18 246.693 1147.38 246.693C1133.97 246.693 1123.56 251.2 1116.16 260.213C1108.76 268.996 1105.06 281.36 1105.06 297.307V384.667H1061.35Z" fill="white"/>
<path d="M950.892 389.52C928.459 389.52 910.073 384.667 895.735 374.96C881.396 365.253 872.723 351.387 869.717 333.36L909.958 322.96C911.576 331.049 914.236 337.404 917.936 342.027C921.868 346.649 926.609 350 932.159 352.08C937.941 353.929 944.185 354.853 950.892 354.853C961.068 354.853 968.584 353.12 973.44 349.653C978.297 345.956 980.725 341.449 980.725 336.133C980.725 330.818 978.413 326.773 973.787 324C969.162 320.996 961.761 318.569 951.586 316.72L941.872 314.987C929.846 312.676 918.861 309.556 908.917 305.627C898.972 301.467 890.994 295.804 884.981 288.64C878.968 281.476 875.961 272.231 875.961 260.907C875.961 243.804 882.205 230.747 894.694 221.733C907.182 212.489 923.602 207.867 943.954 207.867C963.149 207.867 979.106 212.142 991.826 220.693C1004.55 229.244 1012.87 240.453 1016.8 254.32L976.216 266.8C974.365 258.018 970.55 251.778 964.768 248.08C959.217 244.382 952.279 242.533 943.954 242.533C935.628 242.533 929.268 244.036 924.874 247.04C920.48 249.813 918.283 253.742 918.283 258.827C918.283 264.373 920.596 268.533 925.221 271.307C929.846 273.849 936.091 275.813 943.954 277.2L953.667 278.933C966.618 281.244 978.297 284.364 988.704 288.293C999.342 291.991 1007.67 297.422 1013.68 304.587C1019.93 311.52 1023.05 320.996 1023.05 333.013C1023.05 351.04 1016.46 365.022 1003.27 374.96C990.323 384.667 972.862 389.52 950.892 389.52Z" fill="white"/>
<path d="M748.89 389.52C731.776 389.52 716.397 386.053 702.752 379.12C689.107 372.187 678.353 362.133 670.49 348.96C662.627 335.787 658.696 319.956 658.696 301.467V295.92C658.696 277.431 662.627 261.6 670.49 248.427C678.353 235.253 689.107 225.2 702.752 218.267C716.397 211.333 731.776 207.867 748.89 207.867C766.004 207.867 781.383 211.333 795.028 218.267C808.672 225.2 819.426 235.253 827.289 248.427C835.153 261.6 839.084 277.431 839.084 295.92V301.467C839.084 319.956 835.153 335.787 827.289 348.96C819.426 362.133 808.672 372.187 795.028 379.12C781.383 386.053 766.004 389.52 748.89 389.52ZM748.89 350.693C762.303 350.693 773.404 346.418 782.192 337.867C790.98 329.084 795.375 316.604 795.375 300.427V296.96C795.375 280.782 790.98 268.418 782.192 259.867C773.635 251.084 762.535 246.693 748.89 246.693C735.476 246.693 724.376 251.084 715.587 259.867C706.799 268.418 702.405 280.782 702.405 296.96V300.427C702.405 316.604 706.799 329.084 715.587 337.867C724.376 346.418 735.476 350.693 748.89 350.693Z" fill="white"/>
<path d="M460 384.667V142H559.907C575.171 142 588.585 145.12 600.148 151.36C611.943 157.369 621.078 165.92 627.553 177.013C634.26 188.107 637.613 201.28 637.613 216.533V221.387C637.613 236.409 634.144 249.582 627.206 260.907C620.499 272 611.249 280.667 599.454 286.907C587.891 292.916 574.709 295.92 559.907 295.92H505.791V384.667H460ZM505.791 254.32H555.398C566.267 254.32 575.055 251.316 581.762 245.307C588.469 239.298 591.822 231.093 591.822 220.693V217.227C591.822 206.827 588.469 198.622 581.762 192.613C575.055 186.604 566.267 183.6 555.398 183.6H505.791V254.32Z" fill="white"/>
<path d="M2407.27 384.667C2395.94 384.667 2386.69 381.2 2379.52 374.267C2372.58 367.102 2369.11 357.627 2369.11 345.84V248.773H2326.1V212.72H2369.11V159.333H2412.82V212.72H2460V248.773H2412.82V338.213C2412.82 345.147 2416.06 348.613 2422.53 348.613H2455.84V384.667H2407.27Z" fill="#F59E25"/>
<path d="M2125.9 454V212.72H2168.92V233.52H2175.16C2179.09 226.818 2185.22 220.924 2193.55 215.84C2201.87 210.524 2213.78 207.867 2229.28 207.867C2243.15 207.867 2255.99 211.333 2267.78 218.267C2279.58 224.969 2289.06 234.907 2296.23 248.08C2303.4 261.253 2306.98 277.2 2306.98 295.92V301.467C2306.98 320.187 2303.4 336.133 2296.23 349.307C2289.06 362.48 2279.58 372.533 2267.78 379.467C2255.99 386.169 2243.15 389.52 2229.28 389.52C2218.87 389.52 2210.08 388.249 2202.91 385.707C2195.98 383.396 2190.31 380.391 2185.92 376.693C2181.75 372.764 2178.4 368.836 2175.86 364.907H2169.61V454H2125.9ZM2216.1 351.387C2229.74 351.387 2240.96 347.111 2249.75 338.56C2258.77 329.778 2263.27 317.067 2263.27 300.427V296.96C2263.27 280.32 2258.77 267.724 2249.75 259.173C2240.73 250.391 2229.51 246 2216.1 246C2202.68 246 2191.47 250.391 2182.45 259.173C2173.43 267.724 2168.92 280.32 2168.92 296.96V300.427C2168.92 317.067 2173.43 329.778 2182.45 338.56C2191.47 347.111 2202.68 351.387 2216.1 351.387Z" fill="#F59E25"/>
<path d="M1829.82 384.667V212.72H1872.83V231.44H1879.08C1882.08 225.662 1887.06 220.693 1893.99 216.533C1900.93 212.142 1910.07 209.947 1921.4 209.947C1933.66 209.947 1943.48 212.373 1950.89 217.227C1958.29 221.849 1963.95 227.973 1967.88 235.6H1974.13C1978.06 228.204 1983.61 222.08 1990.78 217.227C1997.95 212.373 2008.12 209.947 2021.31 209.947C2031.94 209.947 2041.54 212.258 2050.1 216.88C2058.89 221.271 2065.82 228.089 2070.91 237.333C2076.23 246.347 2078.89 257.787 2078.89 271.653V384.667H2035.18V274.773C2035.18 265.298 2032.75 258.249 2027.9 253.627C2023.04 248.773 2016.22 246.347 2007.43 246.347C1997.49 246.347 1989.74 249.582 1984.19 256.053C1978.87 262.293 1976.21 271.307 1976.21 283.093V384.667H1932.5V274.773C1932.5 265.298 1930.07 258.249 1925.21 253.627C1920.36 248.773 1913.54 246.347 1904.75 246.347C1894.8 246.347 1887.06 249.582 1881.5 256.053C1876.19 262.293 1873.53 271.307 1873.53 283.093V384.667H1829.82Z" fill="#F59E25"/>
<path d="M1699.28 389.52C1682.16 389.52 1666.78 386.053 1653.14 379.12C1639.49 372.187 1628.74 362.133 1620.88 348.96C1613.01 335.787 1609.08 319.956 1609.08 301.467V295.92C1609.08 277.431 1613.01 261.6 1620.88 248.427C1628.74 235.253 1639.49 225.2 1653.14 218.267C1666.78 211.333 1682.16 207.867 1699.28 207.867C1716.39 207.867 1731.77 211.333 1745.41 218.267C1759.06 225.2 1769.81 235.253 1777.68 248.427C1785.54 261.6 1789.47 277.431 1789.47 295.92V301.467C1789.47 319.956 1785.54 335.787 1777.68 348.96C1769.81 362.133 1759.06 372.187 1745.41 379.12C1731.77 386.053 1716.39 389.52 1699.28 389.52ZM1699.28 350.693C1712.69 350.693 1723.79 346.418 1732.58 337.867C1741.37 329.084 1745.76 316.604 1745.76 300.427V296.96C1745.76 280.782 1741.37 268.418 1732.58 259.867C1724.02 251.084 1712.92 246.693 1699.28 246.693C1685.86 246.693 1674.76 251.084 1665.97 259.867C1657.19 268.418 1652.79 280.782 1652.79 296.96V300.427C1652.79 316.604 1657.19 329.084 1665.97 337.867C1674.76 346.418 1685.86 350.693 1699.28 350.693Z" fill="#F59E25"/>
<path d="M1485.96 384.667V212.72H1528.98V232.133H1535.22C1537.77 225.2 1541.93 220.116 1547.71 216.88C1553.73 213.644 1560.66 212.027 1568.53 212.027H1589.34V250.853H1567.83C1556.73 250.853 1547.6 253.858 1540.43 259.867C1533.26 265.644 1529.67 274.658 1529.67 286.907V384.667H1485.96Z" fill="#F59E25"/>
<path d="M1275.22 384.667V142H1375.12C1390.39 142 1403.8 145.12 1415.37 151.36C1427.16 157.369 1436.29 165.92 1442.77 177.013C1449.48 188.107 1452.83 201.28 1452.83 216.533V221.387C1452.83 236.409 1449.36 249.582 1442.42 260.907C1435.72 272 1426.47 280.667 1414.67 286.907C1403.11 292.916 1389.93 295.92 1375.12 295.92H1321.01V384.667H1275.22ZM1321.01 254.32H1370.61C1381.48 254.32 1390.27 251.316 1396.98 245.307C1403.69 239.298 1407.04 231.093 1407.04 220.693V217.227C1407.04 206.827 1403.69 198.622 1396.98 192.613C1390.27 186.604 1381.48 183.6 1370.61 183.6H1321.01V254.32Z" fill="#F59E25"/>
</svg>
